<svg xmlns="http://www.w3.org/2000/svg">
    <!-- Lucide Static v1.25.0, Copyright Lucide Contributors, ISC License. -->
    <symbol id="refresh-cw" viewBox="0 0 24 24">
        <path d="M3 12a9 9 0 0 1 9-9 9.75 9.75 0 0 1 6.74 2.74L21 8" />
        <path d="M21 3v5h-5" />
        <path d="M21 12a9 9 0 0 1-9 9 9.75 9.75 0 0 1-6.74-2.74L3 16" />
        <path d="M8 16H3v5" />
    </symbol>
    <symbol id="loader-circle" viewBox="0 0 24 24">
        <path d="M21 12a9 9 0 1 1-6.219-8.56" />
    </symbol>
    <symbol id="check" viewBox="0 0 24 24">
        <path d="M20 6 9 17l-5-5" />
    </symbol>
    <symbol id="circle-alert" viewBox="0 0 24 24">
        <circle cx="12" cy="12" r="10" />
        <line x1="12" x2="12" y1="8" y2="12" />
        <line x1="12" x2="12.01" y1="16" y2="16" />
    </symbol>
    <symbol id="search" viewBox="0 0 24 24">
        <path d="m21 21-4.34-4.34" />
        <circle cx="11" cy="11" r="8" />
    </symbol>
    <symbol id="x" viewBox="0 0 24 24">
        <path d="M18 6 6 18" />
        <path d="m6 6 12 12" />
    </symbol>
    <symbol id="chevron-left" viewBox="0 0 24 24">
        <path d="m15 18-6-6 6-6" />
    </symbol>
    <symbol id="chevron-right" viewBox="0 0 24 24">
        <path d="m9 18 6-6-6-6" />
    </symbol>
    <symbol id="eye" viewBox="0 0 24 24">
        <path d="M2.062 12.348a1 1 0 0 1 0-.696 10.75 10.75 0 0 1 19.876 0 1 1 0 0 1 0 .696 10.75 10.75 0 0 1-19.876 0" />
        <circle cx="12" cy="12" r="3" />
    </symbol>
    <symbol id="eye-off" viewBox="0 0 24 24">
        <path d="M10.733 5.076a10.744 10.744 0 0 1 11.205 6.575 1 1 0 0 1 0 .696 10.747 10.747 0 0 1-1.444 2.49" />
        <path d="M14.084 14.158a3 3 0 0 1-4.242-4.242" />
        <path d="M17.479 17.499a10.75 10.75 0 0 1-15.417-5.151 1 1 0 0 1 0-.696 10.75 10.75 0 0 1 4.446-5.143" />
        <path d="m2 2 20 20" />
    </symbol>
    <symbol id="trash-2" viewBox="0 0 24 24">
        <path d="M10 11v6" />
        <path d="M14 11v6" />
        <path d="M19 6v14a2 2 0 0 1-2 2H7a2 2 0 0 1-2-2V6" />
        <path d="M3 6h18" />
        <path d="M8 6V4a2 2 0 0 1 2-2h4a2 2 0 0 1 2 2v2" />
    </symbol>
    <symbol id="zoom-in" viewBox="0 0 24 24">
        <circle cx="11" cy="11" r="8" />
        <line x1="21" x2="16.65" y1="21" y2="16.65" />
        <line x1="11" x2="11" y1="8" y2="14" />
        <line x1="8" x2="14" y1="11" y2="11" />
    </symbol>
    <symbol id="download" viewBox="0 0 24 24">
        <path d="M12 15V3" />
        <path d="M21 15v4a2 2 0 0 1-2 2H5a2 2 0 0 1-2-2v-4" />
        <path d="m7 10 5 5 5-5" />
    </symbol>
    <symbol id="chevron-down" viewBox="0 0 24 24">
        <path d="m6 9 6 6 6-6" />
    </symbol>
    <symbol id="chevron-up" viewBox="0 0 24 24"><path d="m18 15-6-6-6 6" /></symbol>
    <symbol id="menu" viewBox="0 0 24 24"><path d="M4 6h16M4 12h16M4 18h16" /></symbol>
    <symbol id="plus" viewBox="0 0 24 24"><path d="M5 12h14M12 5v14" /></symbol>
    <symbol id="minus" viewBox="0 0 24 24"><path d="M5 12h14" /></symbol>
    <symbol id="settings" viewBox="0 0 24 24"><path d="M12.22 2h-.44a2 2 0 0 0-2 2v.18a2 2 0 0 1-1 1.73l-.43.25a2 2 0 0 1-2 0l-.15-.08a2 2 0 0 0-2.73.73l-.22.38a2 2 0 0 0 .73 2.73l.15.1a2 2 0 0 1 1 1.72v.51a2 2 0 0 1-1 1.74l-.15.09a2 2 0 0 0-.73 2.73l.22.38a2 2 0 0 0 2.73.73l.15-.08a2 2 0 0 1 2 0l.43.25a2 2 0 0 1 1 1.73V20a2 2 0 0 0 2 2h.44a2 2 0 0 0 2-2v-.18a2 2 0 0 1 1-1.73l.43-.25a2 2 0 0 1 2 0l.15.08a2 2 0 0 0 2.73-.73l.22-.38a2 2 0 0 0-.73-2.73l-.15-.09a2 2 0 0 1-1-1.74v-.51a2 2 0 0 1 1-1.72l.15-.1a2 2 0 0 0 .73-2.73l-.22-.38a2 2 0 0 0-2.73-.73l-.15.08a2 2 0 0 1-2 0l-.43-.25a2 2 0 0 1-1-1.73V4a2 2 0 0 0-2-2Z" /><circle cx="12" cy="12" r="3" /></symbol>
    <symbol id="circle-check" viewBox="0 0 24 24"><circle cx="12" cy="12" r="10" /><path d="m9 12 2 2 4-4" /></symbol>
    <symbol id="circle-x" viewBox="0 0 24 24"><circle cx="12" cy="12" r="10" /><path d="m15 9-6 6m0-6 6 6" /></symbol>
    <symbol id="info" viewBox="0 0 24 24"><circle cx="12" cy="12" r="10" /><path d="M12 16v-4M12 8h.01" /></symbol>
    <symbol id="calendar" viewBox="0 0 24 24"><rect width="18" height="18" x="3" y="4" rx="2" /><path d="M16 2v4M8 2v4M3 10h18" /></symbol>
    <symbol id="clock" viewBox="0 0 24 24"><circle cx="12" cy="12" r="10" /><path d="M12 6v6l4 2" /></symbol>
    <symbol id="copy" viewBox="0 0 24 24"><rect width="14" height="14" x="8" y="8" rx="2" /><path d="M4 16c-1.1 0-2-.9-2-2V4c0-1.1.9-2 2-2h10c1.1 0 2 .9 2 2" /></symbol>
    <symbol id="external-link" viewBox="0 0 24 24"><path d="M15 3h6v6M10 14 21 3M18 13v6a2 2 0 0 1-2 2H5a2 2 0 0 1-2-2V8a2 2 0 0 1 2-2h6" /></symbol>
    <symbol id="more-horizontal" viewBox="0 0 24 24"><circle cx="12" cy="12" r="1" /><circle cx="19" cy="12" r="1" /><circle cx="5" cy="12" r="1" /></symbol>
    <symbol id="arrow-left" viewBox="0 0 24 24"><path d="M19 12H5m7 7-7-7 7-7" /></symbol>
    <symbol id="arrow-right" viewBox="0 0 24 24"><path d="M5 12h14m-7-7 7 7-7 7" /></symbol>
    <symbol id="panel-left" viewBox="0 0 24 24"><rect width="18" height="18" x="3" y="3" rx="2" /><path d="M9 3v18" /></symbol>
    <symbol id="sliders-horizontal" viewBox="0 0 24 24"><path d="M10 5H3m18 0h-7M12 19H3m18 0h-5M14 3v4m4 10v4M8 11H3m18 0h-9M8 9v4" /></symbol>
</svg>
